<svg xmlns="http://www.w3.org/2000/svg" viewBox="1961 233 533 534">
<g>
		<path style="fill-rule:evenodd;clip-rule:evenodd;fill:#FFFFFF;" d="M1961.265,233.549h532.902v532.902h-532.902V233.549z"/>
		<path style="fill-rule:evenodd;clip-rule:evenodd;fill:#CC2229;" d="M2219.644,385.259c0.348,0.351,77.902,177.25,77.828,177.098
			h-50.828c0-0.545-24.074-57.673-23.823-57.972h-54.795C2168.52,504.534,2220.412,384.667,2219.644,385.259L2219.644,385.259z
			 M2054.461,276.628h119.12c0.345-0.075-118.33,285.71-118.725,285.337C2054.859,561.563,2054.586,276.426,2054.461,276.628
			L2054.461,276.628z M2264.265,276.628h123.179l-0.086,285.488C2387.43,563.034,2264.265,276.628,2264.265,276.628
			L2264.265,276.628z"/>
		<path style="fill-rule:evenodd;clip-rule:evenodd;" d="M2102.837,607.053l26.463,113.248h-19.283l-4.537-21.194h-23.945
			l-4.412,21.194h-19.281l26.463-113.248H2102.837z M2101.828,679.857l-8.319-42.388l-8.316,42.388H2101.828L2101.828,679.857z
			 M2172.661,720.298l-0.506-9.87h-0.63c-2.649,7.772-8.316,12.944-15.501,12.944c-17.013,0-24.196-19.897-24.196-44.489
			c0-21.031,5.294-43.845,24.448-43.845c6.679,0,9.831,2.43,14.619,8.736v-36.723h17.014v113.248h-15.247V720.298L2172.661,720.298z
			 M2160.563,651.702c-4.664,0-11.089,4.537-11.089,27.505c0,10.674,1.385,27.823,11.089,27.823
			c9.325,0,11.089-15.369,11.089-27.823C2171.652,656.239,2165.1,651.702,2160.563,651.702z M2199.893,679.047
			c0-25.401,8.822-44.008,28.86-44.008c19.911,0,28.857,18.606,28.857,44.008c0,25.725-9.071,44.326-28.857,44.326
			C2208.842,723.372,2199.893,704.769,2199.893,679.047z M2239.972,679.047c0-22.327-4.667-27.505-11.219-27.505
			c-5.167,0-11.216,3.882-11.216,27.505c0,24.105,6.049,27.823,11.216,27.823C2236.06,706.87,2239.972,700.078,2239.972,679.047z
			 M2284.571,720.298h-15.25V607.053h17.138v37.696c3.525-8.089,10.204-9.709,14.492-9.709c18.02,0,24.575,18.932,24.575,43.845
			c0,24.752-6.425,44.489-24.45,44.489c-7.434,0-11.847-3.721-15.501-12.944h-0.503L2284.571,720.298L2284.571,720.298z
			 M2296.791,706.87c9.325,0,11.092-15.369,11.092-27.823c0-22.977-6.55-27.505-11.092-27.505c-4.661,0-11.086,4.531-11.086,27.505
			C2285.708,689.721,2287.09,706.87,2296.791,706.87z M2390.067,696.519c-4.288,24.915-18.147,26.853-27.475,26.853
			c-10.458,0-28.354-3.882-28.354-44.326c0-28.155,11.592-44.008,29.612-44.008c11.346,0,27.351,6.312,27.351,45.628v4.531h-39.322
			c0,19.411,6.679,21.675,11.468,21.675c3.904,0,7.937-1.128,9.579-10.351h17.141V696.519L2390.067,696.519z M2373.554,671.444
			c-0.503-16.662-4.537-19.903-10.204-19.903c-9.704,0-11.341,13.754-11.468,19.903H2373.554L2373.554,671.444z M2396.114,283.276
			v-6.649h29.062v6.649h-10.763v28.252h-7.539v-28.252H2396.114L2396.114,283.276z M2434.523,284.584v26.944h-7.539v-34.901h9.953
			l9.853,27.464l9.751-27.464h9.853v34.904h-7.545v-26.947l-9.552,26.944h-5.325L2434.523,284.584z"/>
</g>
</svg>