<svg xmlns="http://www.w3.org/2000/svg" viewBox="307 260 451 480">
<g>
		<path style="fill:#00005B;" d="M387.113,280.029h291.414c44.182,0,79.904,35.722,79.904,79.904v280.134
			c0,44.182-35.722,79.904-79.904,79.904H387.113c-44.182,0-79.904-35.722-79.904-79.904V359.933
			C307.209,315.751,342.931,280.029,387.113,280.029z"/>
		<g>
			<path style="fill:#9999FF;" d="M488.451,543.242h-69.94l-14.289,44.37c-0.375,1.691-1.881,2.819-3.572,2.631h-35.345
				c-2.068,0-2.632-1.128-2.068-3.384l60.54-173.533c0.563-1.881,1.128-3.572,1.881-5.828c0.753-3.947,1.128-8.084,1.128-12.221
				c-0.188-0.94,0.563-1.881,1.504-2.068h48.694c1.316,0,2.256,0.563,2.444,1.503l68.624,191.77c0.565,2.068,0,3.009-1.881,3.009
				h-39.294c-1.316,0.188-2.632-0.753-3.009-2.068l-15.417-45.122v0.94L488.451,543.242z M429.416,505.828h47.754
				c-1.128-3.947-2.632-8.649-4.324-13.537c-1.693-5.075-3.384-10.528-5.075-16.168c-1.881-5.828-3.572-11.468-5.452-17.296
				c-1.881-5.828-3.572-11.281-5.075-16.733c-1.504-5.265-2.819-10.152-4.137-14.665h-0.375c-1.693,8.084-3.76,16.168-6.393,24.254
				c-2.819,9.024-5.64,18.424-8.649,27.826c-2.444,9.588-5.453,18.424-8.272,26.321V505.828z M658.787,526.321h-59.599
				c0.753,5.828,2.632,11.656,5.828,16.733c3.384,5.075,8.084,9.025,13.725,11.281c7.521,3.196,15.793,4.888,24.064,4.7
				c6.581-0.188,13.161-0.753,19.552-2.068c5.828-0.753,11.468-2.256,16.733-4.325c0.94-0.753,1.504-0.375,1.504,1.504v28.766
				c0,0.753-0.188,1.503-0.376,2.256c-0.375,0.565-0.753,0.94-1.316,1.316c-6.016,2.632-12.221,4.512-18.801,5.64
				c-8.837,1.691-17.674,2.444-26.698,2.256c-14.289,0-26.321-2.256-36.098-6.581c-9.212-3.949-17.296-10.153-23.689-17.861
				c-6.016-7.331-10.34-15.605-12.972-24.63c-2.632-8.837-3.949-18.049-3.949-27.449c0-10.152,1.503-20.117,4.7-29.894
				c3.009-9.4,7.709-18.049,14.1-25.758c6.205-7.521,13.912-13.537,22.749-17.861c8.837-4.325,19.365-5.828,31.398-5.828
				c9.965-0.188,19.93,1.693,29.142,5.828c7.709,3.384,14.477,8.461,19.742,15.04c4.888,6.393,8.837,13.537,11.281,21.433
				c2.444,7.521,3.572,15.228,3.572,22.937c0,4.512-0.188,8.461-0.376,12.033c-0.375,3.572-0.565,6.205-0.753,7.896
				c-0.188,1.316-1.316,2.444-2.632,2.444c-1.128,0-3.196,0.188-6.205,0.375c-3.009,0.375-6.581,0.565-10.905,0.565
				c-4.325,0-8.837-0.753-13.724-0.753L658.787,526.321z M599.188,498.872h39.67c4.888,0,8.461,0,10.716-0.188
				c1.503-0.188,3.009-0.565,4.324-1.503V495.3c0-2.444-0.375-4.7-1.128-6.956c-3.384-10.528-13.349-17.674-24.442-17.296
				c-10.34-0.565-20.117,4.888-25.005,14.289c-2.256,4.324-3.572,8.837-4.137,13.537L599.188,498.872z"/>
		</g>
</g>
</svg>