<svg xmlns="http://www.w3.org/2000/svg" viewBox="3111 260 451 480">
<g>
		<path style="fill:#330000;" d="M3191.382,280.029h291.415c44.182,0,79.904,35.722,79.904,79.904v280.134
			c0,44.182-35.722,79.904-79.904,79.904h-291.415c-44.182,0-79.904-35.722-79.904-79.904V359.933
			C3111.478,315.75,3147.2,280.029,3191.382,280.029z"/>
		<g>
			<path style="fill:#FF9A00;" d="M3329.569,543.242h-69.939l-14.289,44.182c-0.376,1.692-1.88,2.82-3.572,2.632h-35.346
				c-2.068,0-2.632-1.128-2.068-3.384l60.539-174.285c0.564-1.88,1.128-3.948,1.88-6.204c0.752-3.948,1.128-8.084,1.128-12.221
				c-0.188-0.94,0.564-1.88,1.504-2.068h48.694c1.504,0,2.256,0.564,2.444,1.504l68.624,193.65c0.564,2.068,0,3.008-1.88,3.008
				h-39.294c-1.316,0.188-2.632-0.752-3.008-2.068L3329.569,543.242z M3270.534,505.076h47.754
				c-1.128-3.948-2.632-8.648-4.324-13.537c-1.692-5.076-3.384-10.529-5.076-16.169c-1.88-5.828-3.572-11.469-5.452-17.297
				c-1.88-5.828-3.572-11.281-5.076-16.733c-1.504-5.264-2.82-10.153-4.136-14.665h-0.376c-1.692,8.084-3.76,16.169-6.392,24.253
				c-2.82,9.025-5.64,18.425-8.648,27.826C3276.175,488.343,3273.354,497.18,3270.534,505.076L3270.534,505.076z M3431.094,424.796
				c-6.204,0.188-12.22-2.256-16.733-6.58c-4.324-4.7-6.58-10.905-6.392-17.297c-0.188-6.392,2.256-12.409,6.768-16.733
				c4.512-4.324,10.529-6.58,16.733-6.58c7.332,0,12.973,2.256,17.109,6.58c4.136,4.512,6.392,10.529,6.204,16.733
				c0.188,6.392-2.068,12.597-6.58,17.297C3443.879,422.728,3437.487,425.172,3431.094,424.796L3431.094,424.796z M3410.038,587.989
				V443.221c0-1.88,0.752-2.632,2.444-2.632h37.226c1.692,0,2.444,0.94,2.444,2.632v144.767c0,2.068-0.752,3.008-2.444,3.008h-36.85
				C3410.978,590.997,3410.038,589.869,3410.038,587.989z"/>
		</g>
</g>
</svg>