<svg xmlns="http://www.w3.org/2000/svg" viewBox="2552 260 464 480">
<g>
  <path style="fill:#0ACF83;" d="M2699.091,719.577c40.402,0,73.192-32.79,73.192-73.193v-73.192h-73.192c-40.402,0-73.192,32.79-73.192,73.192S2658.689,719.577,2699.091,719.577z"/>
  <path style="fill:#A259FF;" d="M2625.899,500c0-40.402,32.79-73.192,73.192-73.192h73.192v146.385h-73.192C2658.689,573.192,2625.899,540.402,2625.899,500z"/>
  <path style="fill:#F24E1E;" d="M2625.899,353.615c0-40.402,32.79-73.193,73.192-73.193h73.192v146.385h-73.192C2658.689,426.808,2625.899,394.017,2625.899,353.615z"/>
  <path style="fill:#FF7262;" d="M2772.284,280.423h73.192c40.402,0,73.192,32.79,73.192,73.193s-32.79,73.192-73.192,73.192h-73.192V280.423z"/>
  <path style="fill:#1ABCFE;" d="M2918.668,500c0,40.402-32.79,73.192-73.192,73.192c-40.402,0-73.192-32.79-73.192-73.192s32.79-73.192,73.192-73.192C2885.878,426.808,2918.668,459.598,2918.668,500z"/>
</g>
</svg>
