<svg xmlns="http://www.w3.org/2000/svg" viewBox="3676 260 451 480">
<g>
		<path style="fill:#49021F;" d="M3756.427,280.029h291.415c44.182,0,79.904,35.722,79.904,79.904v280.134
			c0,44.182-35.722,79.904-79.904,79.904h-291.415c-44.182,0-79.904-35.722-79.904-79.904V359.933
			C3676.523,315.75,3712.245,280.029,3756.427,280.029z"/>
		<g>
			<path style="fill:#FF3366;" d="M3840.467,395.091v193.65c0,2.068-0.94,3.008-2.632,3.008h-36.85c-1.692,0-2.444-0.94-2.444-3.008
				v-193.65c0-1.692,0.94-2.444,2.632-2.444h36.662c1.128-0.188,2.256,0.564,2.444,1.88
				C3840.467,394.715,3840.467,394.903,3840.467,395.091L3840.467,395.091z M3949.137,594.005
				c-13.913,0.188-27.826-2.632-40.422-8.46c-11.844-5.452-21.621-14.477-28.389-25.569c-6.956-11.469-10.34-25.757-10.34-42.866
				c-0.188-13.913,3.384-27.637,10.34-39.67c7.145-12.221,17.485-22.373,29.894-29.142c13.161-7.332,28.954-10.905,47.566-10.905
				c0.94,0,2.256,0,3.948,0.188c1.692,0.188,3.572,0.188,5.828,0.376v-59.411c0-1.316,0.564-2.068,1.88-2.068h38.166
				c0.94-0.188,1.692,0.564,1.88,1.316v179.361c0,3.384,0.188,7.144,0.376,11.281c0.376,3.948,0.564,7.708,0.752,10.904
				c0,1.316-0.564,2.444-1.88,3.008c-9.776,4.136-20.117,7.144-30.646,9.024C3968.69,593.065,3958.914,594.005,3949.137,594.005
				L3949.137,594.005z M3967.562,556.403v-82.724c-1.692-0.376-3.384-0.752-5.076-0.94c-2.068-0.188-4.136-0.376-6.204-0.376
				c-7.333,0-14.665,1.504-21.245,4.888c-6.392,3.196-11.845,7.896-15.981,13.913c-4.136,6.016-6.204,14.101-6.204,23.877
				c-0.188,6.58,0.94,13.161,3.196,19.365c1.88,5.076,4.7,9.589,8.46,13.349c3.572,3.384,7.896,6.016,12.785,7.52
				c5.076,1.692,10.341,2.444,15.605,2.444c2.82,0,5.452-0.188,7.896-0.376C3963.238,557.531,3965.494,557.155,3967.562,556.403
				L3967.562,556.403z"/>
		</g>
</g>
</svg>