<svg xmlns="http://www.w3.org/2000/svg" viewBox="872 260 451 480">
<g>
		<g>
			<path style="fill:#001E36;" d="M952.151,280.02h291.43c44.172,0,79.897,35.725,79.897,79.897v280.167
				c0,44.172-35.725,79.897-79.897,79.897h-291.43c-44.172,0-79.897-35.725-79.897-79.897V359.917
				C872.254,315.745,907.979,280.02,952.151,280.02z"/>
		</g>
		<g>
			<path style="fill:#31A7FE;" d="M976.785,499.607c0-30.79-0.002-61.581,0.001-92.371c0.001-6.126,0.119-6.255,6.044-6.262
				c10.117-0.012,20.24,0.193,30.349-0.095c4.325-0.123,5.426,1.366,5.416,5.527c-0.124,49.557-0.08,99.115-0.078,148.673
				c0,5.712,0.007,5.715,5.592,5.715c26.099,0.001,52.199,0.068,78.297-0.071c3.97-0.021,5.531,0.671,4.653,5.126
				c-1.869,9.478-3.277,19.05-4.742,28.603c-0.484,3.156-1.891,4.432-5.215,4.424c-38.416-0.088-76.832-0.109-115.247,0.02
				c-4.319,0.015-5.124-1.896-5.115-5.599C976.82,562.067,976.786,530.837,976.785,499.607z"/>
			<path style="fill:#31A7FE;" d="M1168.703,467.875c5.433-5.532,10.735-10.083,16.735-13.786c8.946-5.521,18.62-8.37,29.15-8.52
				c3.253-0.046,4.407,1.191,4.374,4.394c-0.113,10.851-0.163,21.705,0.026,32.554c0.064,3.661-1.138,4.859-4.803,4.725
				c-11.125-0.408-21.875,1.6-32.194,5.818c-0.948,0.388-1.875,0.825-2.815,1.233c-6.31,2.738-9.289,6.67-9.123,14.411
				c0.608,28.29,0.159,56.601,0.328,84.903c0.025,4.257-1.274,5.617-5.491,5.518c-10.26-0.243-20.529-0.06-30.795-0.086
				c-5.601-0.014-5.838-0.281-5.848-6.049c-0.068-39.301-0.143-78.602-0.183-117.903c-0.007-7.339-0.269-14.667-1.081-21.956
				c-0.349-3.133,0.272-4.573,3.828-4.503c9.675,0.19,19.359,0.176,29.035,0.011c3.541-0.061,5.381,1.486,6.475,4.641
				C1167.877,457.769,1167.89,462.49,1168.703,467.875z"/>
		</g>
</g>
</svg>