<svg xmlns="http://www.w3.org/2000/svg" viewBox="4241 260 451 480">
<g>
		<path style="fill:#00005B;" d="M4321.472,280.029h291.415c44.182,0,79.904,35.722,79.904,79.904v280.134
			c0,44.182-35.722,79.904-79.904,79.904h-291.415c-44.183,0-79.904-35.722-79.904-79.904V359.933
			C4241.568,315.75,4277.29,280.029,4321.472,280.029z"/>
		<path style="fill:#00003C;" d="M4242.541,648.323c-0.274-0.728-0.548-1.455-0.823-2.182c0-1.002,0-2.003,0-3.005
			C4242.639,644.763,4242.627,646.537,4242.541,648.323z"/>
		<path style="fill:#000020;" d="M4314.638,280.823c0.008-0.133,0.014-0.267,0.017-0.4c1.001,0,2.002,0,3.003,0
			C4316.712,281.016,4315.665,280.84,4314.638,280.823z"/>
		<path style="fill:#000020;" d="M4620.133,280.423c0.003,0.134,0.008,0.267,0.016,0.401c-1.026,0.017-2.074,0.192-3.02-0.401
			C4618.131,280.423,4619.132,280.423,4620.133,280.423z"/>
		<path style="fill:#000019;" d="M4692.27,352.943c0.124,0.01,0.247,0.018,0.371,0.023c0,1.002,0,2.003,0,3.005
			C4692.048,355.019,4692.229,353.972,4692.27,352.943z"/>
		<path style="fill:#000039;" d="M4313.797,719.971c-0.012-0.129-0.03-0.257-0.054-0.383c1.04-0.037,2.097-0.216,3.057,0.383
			C4315.799,719.971,4314.798,719.971,4313.797,719.971z"/>
		<path style="fill:#000039;" d="M4621.045,719.588c-0.024,0.127-0.042,0.255-0.054,0.383c-1.001,0-2.002,0-3.003,0
			C4618.948,719.372,4620.005,719.551,4621.045,719.588z"/>
		<path style="fill:#9999FF;" d="M4349.048,491.665c0-31.543,0-63.087,0-94.63c0-3.867,0.147-3.961,3.932-4.042
			c13.938-0.298,27.874-0.665,41.811-0.944c7.291-0.146,14.587-0.252,21.875,0.034c12.148,0.476,24.021,2.425,35.289,7.219
			c16.124,6.86,28.043,17.983,34.463,34.516c4.11,10.585,5.288,21.589,4.318,32.877c-0.648,7.533-2.099,14.867-5.123,21.814
			c-6.051,13.902-16.232,23.86-29.656,30.619c-7.403,3.727-15.329,5.84-23.459,7.242c-11.186,1.929-22.467,2.1-33.773,1.769
			c-2.144-0.063-4.287-0.124-6.431-0.173c-2.918-0.067-2.458,0.004-2.488,2.58c-0.014,1.144-0.002,2.289-0.002,3.433
			c0,17.596,0,35.191,0,52.787c0,0.644,0.041,1.293-0.028,1.93c-0.132,1.227-0.824,1.926-2.056,2.085
			c-0.563,0.073-1.142,0.039-1.713,0.039c-11.01,0.002-22.02,0.002-33.03,0c-3.631,0-3.926-0.287-3.926-3.88
			C4349.047,555.182,4349.048,523.423,4349.048,491.665z"/>
		<path style="fill:#9999FF;" d="M4557.444,460.62c0.936-0.981,1.472-1.542,2.007-2.104c7.875-8.276,17.111-14.478,27.948-18.172
			c5.861-1.998,11.92-2.939,18.12-2.921c2.386,0.007,3.064,0.642,3.067,3.053c0.015,11.804,0.012,23.608,0.002,35.413
			c-0.002,2.425-0.453,2.951-2.86,2.935c-4.655-0.029-9.296,0.144-13.905,0.792c-7.75,1.091-15.266,3.047-22.403,6.315
			c-2.944,1.348-5.6,3.139-7.994,5.337c-1.017,0.933-1.457,1.927-1.451,3.351c0.055,13.592,0.033,27.185,0.033,40.778
			c0,17.027,0,34.053,0,51.08c0,0.572,0.014,1.145-0.004,1.717c-0.077,2.399-0.676,3.009-3.117,3.012
			c-12.013,0.013-24.026,0.014-36.039,0.001c-2.589-0.003-3.29-0.783-3.29-3.588c-0.005-24.824-0.003-49.649-0.003-74.473
			c0-8.442-0.016-16.884,0.003-25.325c0.03-12.879-0.349-25.749-0.829-38.617c-0.078-2.071-0.344-4.134-0.446-6.205
			c-0.095-1.942,0.398-2.439,2.317-2.44c10.512-0.007,21.023-0.008,31.534,0.006c2.791,0.004,4.086,0.876,4.917,3.541
			c1.13,3.628,1.648,7.385,2.007,11.159C4557.212,456.883,4557.294,458.51,4557.444,460.62z"/>
		<path style="fill:#00005B;" d="M4390.059,461.046c0-9.37,0-18.74,0-28.111c0-0.429-0.002-0.858,0-1.288
			c0.012-2.234,0.011-2.285,2.185-2.32c6.647-0.107,13.294-0.216,19.942-0.239c4.586-0.016,9.128,0.483,13.597,1.571
			c2.854,0.694,5.649,1.578,8.306,2.821c9.086,4.25,14.13,11.528,15.691,21.32c0.763,4.787,0.417,9.566-0.529,14.292
			c-1.652,8.256-6.852,13.798-13.922,17.824c-4.34,2.472-9.15,3.623-13.976,4.644c-4.484,0.949-9.033,1.412-13.625,1.39
			c-3.646-0.017-7.292,0.009-10.939-0.014c-1.5-0.009-3.003-0.057-4.5-0.155c-2.219-0.146-2.228-0.172-2.228-2.338
			C4390.057,480.645,4390.059,470.845,4390.059,461.046z"/>
</g>
</svg>