<svg xmlns="http://www.w3.org/2000/svg" viewBox="1437 260 451 480">
<g>
		<path style="fill:#001E36;" d="M1517.203,280.029h291.415c44.182,0,79.904,35.722,79.904,79.904v280.134
			c0,44.182-35.722,79.904-79.904,79.904h-291.415c-44.182,0-79.904-35.722-79.904-79.904V359.933
			C1437.299,315.75,1473.02,280.029,1517.203,280.029z"/>
		<g>
			<path style="fill:#31A8FF;" d="M1538.824,588.552V395.091c0-1.316,0.564-2.068,1.88-2.068c3.196,0,6.204,0,10.529-0.188
				c4.512-0.188,9.213-0.188,14.289-0.376c5.076-0.188,10.528-0.188,16.357-0.376c5.828-0.188,11.469-0.188,17.109-0.188
				c15.417,0,28.202,1.88,38.73,5.828c9.401,3.196,18.049,8.46,25.193,15.417c6.016,6.016,10.716,13.349,13.725,21.433
				c2.82,7.896,4.324,15.981,4.324,24.441c0,16.169-3.76,29.518-11.281,40.046c-7.52,10.529-18.049,18.425-30.27,22.937
				c-12.785,4.7-26.885,6.392-42.302,6.392c-4.512,0-7.52,0-9.4-0.188c-1.88-0.188-4.512-0.188-8.084-0.188v60.351
				c0.188,1.316-0.752,2.444-2.068,2.632h-36.474C1539.576,590.997,1538.824,590.245,1538.824,588.552L1538.824,588.552z
				 M1579.81,429.308v63.171c2.632,0.188,5.076,0.376,7.332,0.376h9.964c7.332,0,14.665-1.128,21.621-3.384
				c6.016-1.692,11.281-5.264,15.417-9.965c3.948-4.7,5.828-11.093,5.828-19.365c0.188-5.828-1.316-11.656-4.324-16.733
				c-3.196-4.888-7.708-8.648-13.161-10.716c-6.956-2.82-14.477-3.948-22.185-3.76c-4.888,0-9.212,0-12.785,0.188
				C1583.758,428.932,1581.126,429.12,1579.81,429.308L1579.81,429.308z M1798.277,481.011c-5.64-3.008-11.656-5.076-18.049-6.392
				c-6.956-1.504-13.913-2.444-21.057-2.444c-3.76-0.188-7.708,0.376-11.281,1.316c-2.444,0.564-4.512,1.88-5.828,3.76
				c-0.94,1.504-1.504,3.384-1.504,5.076c0,1.692,0.752,3.384,1.88,4.888c1.692,2.068,3.948,3.76,6.392,5.076
				c4.324,2.256,8.837,4.324,13.349,6.204c10.152,3.384,19.929,8.085,28.953,13.725c6.204,3.948,11.281,9.212,14.853,15.605
				c3.008,6.016,4.512,12.597,4.324,19.365c0.188,8.836-2.444,17.673-7.332,25.005c-5.264,7.52-12.597,13.349-21.057,16.733
				c-9.212,3.948-20.493,6.016-34.03,6.016c-8.648,0-17.109-0.752-25.569-2.444c-6.58-1.128-13.161-3.196-19.177-6.016
				c-1.316-0.752-2.256-2.068-2.068-3.572v-32.714c0-0.564,0.188-1.316,0.752-1.692c0.564-0.376,1.128-0.188,1.692,0.188
				c7.332,4.324,15.041,7.332,23.313,9.212c7.145,1.88,14.665,2.82,22.185,2.82c7.144,0,12.221-0.94,15.605-2.632
				c3.008-1.316,5.076-4.512,5.076-7.896c0-2.632-1.504-5.076-4.512-7.52c-3.008-2.444-9.212-5.264-18.425-8.836
				c-9.589-3.384-18.425-7.896-26.698-13.537c-5.828-4.136-10.717-9.588-14.289-15.981c-3.008-6.016-4.512-12.597-4.324-19.177
				c0-8.085,2.256-15.793,6.392-22.749c4.7-7.52,11.657-13.537,19.741-17.297c8.836-4.512,19.929-6.58,33.278-6.58
				c7.708,0,15.605,0.564,23.313,1.692c5.64,0.752,11.093,2.256,16.169,4.324c0.752,0.188,1.504,0.94,1.88,1.692
				c0.188,0.752,0.376,1.504,0.376,2.256v30.646c0,0.752-0.376,1.504-0.94,1.88C1799.969,481.387,1799.029,481.387,1798.277,481.011
				L1798.277,481.011z"/>
		</g>
</g>
</svg>