<?xml version="1.0" encoding="iso-8859-1"?>
<!-- Generator: Adobe Illustrator 30.4.0, SVG Export Plug-In . SVG Version: 9.03 Build 0)  -->
<svg version="1.1" id="_x2014_&#xCE;&#xD3;&#xC8;_x5F_1"
	 xmlns="http://www.w3.org/2000/svg" xmlns:xlink="http://www.w3.org/1999/xlink" x="0px" y="0px" viewBox="0 0 5000 1000"
	 style="enable-background:new 0 0 5000 1000;" xml:space="preserve">
<g>
	<g>
		<path style="fill:#49021F;" d="M3756.427,280.029h291.415c44.182,0,79.904,35.722,79.904,79.904v280.134
			c0,44.182-35.722,79.904-79.904,79.904h-291.415c-44.182,0-79.904-35.722-79.904-79.904V359.933
			C3676.523,315.75,3712.245,280.029,3756.427,280.029z"/>
		<g>
			<path style="fill:#FF3366;" d="M3840.467,395.091v193.65c0,2.068-0.94,3.008-2.632,3.008h-36.85c-1.692,0-2.444-0.94-2.444-3.008
				v-193.65c0-1.692,0.94-2.444,2.632-2.444h36.662c1.128-0.188,2.256,0.564,2.444,1.88
				C3840.467,394.715,3840.467,394.903,3840.467,395.091L3840.467,395.091z M3949.137,594.005
				c-13.913,0.188-27.826-2.632-40.422-8.46c-11.844-5.452-21.621-14.477-28.389-25.569c-6.956-11.469-10.34-25.757-10.34-42.866
				c-0.188-13.913,3.384-27.637,10.34-39.67c7.145-12.221,17.485-22.373,29.894-29.142c13.161-7.332,28.954-10.905,47.566-10.905
				c0.94,0,2.256,0,3.948,0.188c1.692,0.188,3.572,0.188,5.828,0.376v-59.411c0-1.316,0.564-2.068,1.88-2.068h38.166
				c0.94-0.188,1.692,0.564,1.88,1.316v179.361c0,3.384,0.188,7.144,0.376,11.281c0.376,3.948,0.564,7.708,0.752,10.904
				c0,1.316-0.564,2.444-1.88,3.008c-9.776,4.136-20.117,7.144-30.646,9.024C3968.69,593.065,3958.914,594.005,3949.137,594.005
				L3949.137,594.005z M3967.562,556.403v-82.724c-1.692-0.376-3.384-0.752-5.076-0.94c-2.068-0.188-4.136-0.376-6.204-0.376
				c-7.333,0-14.665,1.504-21.245,4.888c-6.392,3.196-11.845,7.896-15.981,13.913c-4.136,6.016-6.204,14.101-6.204,23.877
				c-0.188,6.58,0.94,13.161,3.196,19.365c1.88,5.076,4.7,9.589,8.46,13.349c3.572,3.384,7.896,6.016,12.785,7.52
				c5.076,1.692,10.341,2.444,15.605,2.444c2.82,0,5.452-0.188,7.896-0.376C3963.238,557.531,3965.494,557.155,3967.562,556.403
				L3967.562,556.403z"/>
		</g>
	</g>
	<g>
		<path style="fill:#330000;" d="M3191.382,280.029h291.415c44.182,0,79.904,35.722,79.904,79.904v280.134
			c0,44.182-35.722,79.904-79.904,79.904h-291.415c-44.182,0-79.904-35.722-79.904-79.904V359.933
			C3111.478,315.75,3147.2,280.029,3191.382,280.029z"/>
		<g>
			<path style="fill:#FF9A00;" d="M3329.569,543.242h-69.939l-14.289,44.182c-0.376,1.692-1.88,2.82-3.572,2.632h-35.346
				c-2.068,0-2.632-1.128-2.068-3.384l60.539-174.285c0.564-1.88,1.128-3.948,1.88-6.204c0.752-3.948,1.128-8.084,1.128-12.221
				c-0.188-0.94,0.564-1.88,1.504-2.068h48.694c1.504,0,2.256,0.564,2.444,1.504l68.624,193.65c0.564,2.068,0,3.008-1.88,3.008
				h-39.294c-1.316,0.188-2.632-0.752-3.008-2.068L3329.569,543.242z M3270.534,505.076h47.754
				c-1.128-3.948-2.632-8.648-4.324-13.537c-1.692-5.076-3.384-10.529-5.076-16.169c-1.88-5.828-3.572-11.469-5.452-17.297
				c-1.88-5.828-3.572-11.281-5.076-16.733c-1.504-5.264-2.82-10.153-4.136-14.665h-0.376c-1.692,8.084-3.76,16.169-6.392,24.253
				c-2.82,9.025-5.64,18.425-8.648,27.826C3276.175,488.343,3273.354,497.18,3270.534,505.076L3270.534,505.076z M3431.094,424.796
				c-6.204,0.188-12.22-2.256-16.733-6.58c-4.324-4.7-6.58-10.905-6.392-17.297c-0.188-6.392,2.256-12.409,6.768-16.733
				c4.512-4.324,10.529-6.58,16.733-6.58c7.332,0,12.973,2.256,17.109,6.58c4.136,4.512,6.392,10.529,6.204,16.733
				c0.188,6.392-2.068,12.597-6.58,17.297C3443.879,422.728,3437.487,425.172,3431.094,424.796L3431.094,424.796z M3410.038,587.989
				V443.221c0-1.88,0.752-2.632,2.444-2.632h37.226c1.692,0,2.444,0.94,2.444,2.632v144.767c0,2.068-0.752,3.008-2.444,3.008h-36.85
				C3410.978,590.997,3410.038,589.869,3410.038,587.989z"/>
		</g>
	</g>
	<g>
		<path style="fill:#001E36;" d="M1517.203,280.029h291.415c44.182,0,79.904,35.722,79.904,79.904v280.134
			c0,44.182-35.722,79.904-79.904,79.904h-291.415c-44.182,0-79.904-35.722-79.904-79.904V359.933
			C1437.299,315.75,1473.02,280.029,1517.203,280.029z"/>
		<g>
			<path style="fill:#31A8FF;" d="M1538.824,588.552V395.091c0-1.316,0.564-2.068,1.88-2.068c3.196,0,6.204,0,10.529-0.188
				c4.512-0.188,9.213-0.188,14.289-0.376c5.076-0.188,10.528-0.188,16.357-0.376c5.828-0.188,11.469-0.188,17.109-0.188
				c15.417,0,28.202,1.88,38.73,5.828c9.401,3.196,18.049,8.46,25.193,15.417c6.016,6.016,10.716,13.349,13.725,21.433
				c2.82,7.896,4.324,15.981,4.324,24.441c0,16.169-3.76,29.518-11.281,40.046c-7.52,10.529-18.049,18.425-30.27,22.937
				c-12.785,4.7-26.885,6.392-42.302,6.392c-4.512,0-7.52,0-9.4-0.188c-1.88-0.188-4.512-0.188-8.084-0.188v60.351
				c0.188,1.316-0.752,2.444-2.068,2.632h-36.474C1539.576,590.997,1538.824,590.245,1538.824,588.552L1538.824,588.552z
				 M1579.81,429.308v63.171c2.632,0.188,5.076,0.376,7.332,0.376h9.964c7.332,0,14.665-1.128,21.621-3.384
				c6.016-1.692,11.281-5.264,15.417-9.965c3.948-4.7,5.828-11.093,5.828-19.365c0.188-5.828-1.316-11.656-4.324-16.733
				c-3.196-4.888-7.708-8.648-13.161-10.716c-6.956-2.82-14.477-3.948-22.185-3.76c-4.888,0-9.212,0-12.785,0.188
				C1583.758,428.932,1581.126,429.12,1579.81,429.308L1579.81,429.308z M1798.277,481.011c-5.64-3.008-11.656-5.076-18.049-6.392
				c-6.956-1.504-13.913-2.444-21.057-2.444c-3.76-0.188-7.708,0.376-11.281,1.316c-2.444,0.564-4.512,1.88-5.828,3.76
				c-0.94,1.504-1.504,3.384-1.504,5.076c0,1.692,0.752,3.384,1.88,4.888c1.692,2.068,3.948,3.76,6.392,5.076
				c4.324,2.256,8.837,4.324,13.349,6.204c10.152,3.384,19.929,8.085,28.953,13.725c6.204,3.948,11.281,9.212,14.853,15.605
				c3.008,6.016,4.512,12.597,4.324,19.365c0.188,8.836-2.444,17.673-7.332,25.005c-5.264,7.52-12.597,13.349-21.057,16.733
				c-9.212,3.948-20.493,6.016-34.03,6.016c-8.648,0-17.109-0.752-25.569-2.444c-6.58-1.128-13.161-3.196-19.177-6.016
				c-1.316-0.752-2.256-2.068-2.068-3.572v-32.714c0-0.564,0.188-1.316,0.752-1.692c0.564-0.376,1.128-0.188,1.692,0.188
				c7.332,4.324,15.041,7.332,23.313,9.212c7.145,1.88,14.665,2.82,22.185,2.82c7.144,0,12.221-0.94,15.605-2.632
				c3.008-1.316,5.076-4.512,5.076-7.896c0-2.632-1.504-5.076-4.512-7.52c-3.008-2.444-9.212-5.264-18.425-8.836
				c-9.589-3.384-18.425-7.896-26.698-13.537c-5.828-4.136-10.717-9.588-14.289-15.981c-3.008-6.016-4.512-12.597-4.324-19.177
				c0-8.085,2.256-15.793,6.392-22.749c4.7-7.52,11.657-13.537,19.741-17.297c8.836-4.512,19.929-6.58,33.278-6.58
				c7.708,0,15.605,0.564,23.313,1.692c5.64,0.752,11.093,2.256,16.169,4.324c0.752,0.188,1.504,0.94,1.88,1.692
				c0.188,0.752,0.376,1.504,0.376,2.256v30.646c0,0.752-0.376,1.504-0.94,1.88C1799.969,481.387,1799.029,481.387,1798.277,481.011
				L1798.277,481.011z"/>
		</g>
	</g>
	<g>
		<path style="fill:#00005B;" d="M387.113,280.029h291.414c44.182,0,79.904,35.722,79.904,79.904v280.134
			c0,44.182-35.722,79.904-79.904,79.904H387.113c-44.182,0-79.904-35.722-79.904-79.904V359.933
			C307.209,315.751,342.931,280.029,387.113,280.029z"/>
		<g>
			<path style="fill:#9999FF;" d="M488.451,543.242h-69.94l-14.289,44.37c-0.375,1.691-1.881,2.819-3.572,2.631h-35.345
				c-2.068,0-2.632-1.128-2.068-3.384l60.54-173.533c0.563-1.881,1.128-3.572,1.881-5.828c0.753-3.947,1.128-8.084,1.128-12.221
				c-0.188-0.94,0.563-1.881,1.504-2.068h48.694c1.316,0,2.256,0.563,2.444,1.503l68.624,191.77c0.565,2.068,0,3.009-1.881,3.009
				h-39.294c-1.316,0.188-2.632-0.753-3.009-2.068l-15.417-45.122v0.94L488.451,543.242z M429.416,505.828h47.754
				c-1.128-3.947-2.632-8.649-4.324-13.537c-1.693-5.075-3.384-10.528-5.075-16.168c-1.881-5.828-3.572-11.468-5.452-17.296
				c-1.881-5.828-3.572-11.281-5.075-16.733c-1.504-5.265-2.819-10.152-4.137-14.665h-0.375c-1.693,8.084-3.76,16.168-6.393,24.254
				c-2.819,9.024-5.64,18.424-8.649,27.826c-2.444,9.588-5.453,18.424-8.272,26.321V505.828z M658.787,526.321h-59.599
				c0.753,5.828,2.632,11.656,5.828,16.733c3.384,5.075,8.084,9.025,13.725,11.281c7.521,3.196,15.793,4.888,24.064,4.7
				c6.581-0.188,13.161-0.753,19.552-2.068c5.828-0.753,11.468-2.256,16.733-4.325c0.94-0.753,1.504-0.375,1.504,1.504v28.766
				c0,0.753-0.188,1.503-0.376,2.256c-0.375,0.565-0.753,0.94-1.316,1.316c-6.016,2.632-12.221,4.512-18.801,5.64
				c-8.837,1.691-17.674,2.444-26.698,2.256c-14.289,0-26.321-2.256-36.098-6.581c-9.212-3.949-17.296-10.153-23.689-17.861
				c-6.016-7.331-10.34-15.605-12.972-24.63c-2.632-8.837-3.949-18.049-3.949-27.449c0-10.152,1.503-20.117,4.7-29.894
				c3.009-9.4,7.709-18.049,14.1-25.758c6.205-7.521,13.912-13.537,22.749-17.861c8.837-4.325,19.365-5.828,31.398-5.828
				c9.965-0.188,19.93,1.693,29.142,5.828c7.709,3.384,14.477,8.461,19.742,15.04c4.888,6.393,8.837,13.537,11.281,21.433
				c2.444,7.521,3.572,15.228,3.572,22.937c0,4.512-0.188,8.461-0.376,12.033c-0.375,3.572-0.565,6.205-0.753,7.896
				c-0.188,1.316-1.316,2.444-2.632,2.444c-1.128,0-3.196,0.188-6.205,0.375c-3.009,0.375-6.581,0.565-10.905,0.565
				c-4.325,0-8.837-0.753-13.724-0.753L658.787,526.321z M599.188,498.872h39.67c4.888,0,8.461,0,10.716-0.188
				c1.503-0.188,3.009-0.565,4.324-1.503V495.3c0-2.444-0.375-4.7-1.128-6.956c-3.384-10.528-13.349-17.674-24.442-17.296
				c-10.34-0.565-20.117,4.888-25.005,14.289c-2.256,4.324-3.572,8.837-4.137,13.537L599.188,498.872z"/>
		</g>
	</g>
	<g>
		<path style="fill-rule:evenodd;clip-rule:evenodd;fill:#FFFFFF;" d="M2505.833,233.549h532.902v532.902h-532.902V233.549z"/>
		<g>
			<path style="fill:#0ACF83;" d="M2699.091,719.577c40.402,0,73.192-32.79,73.192-73.193v-73.192h-73.192
				c-40.402,0-73.192,32.79-73.192,73.192S2658.689,719.577,2699.091,719.577z"/>
			<path style="fill:#A259FF;" d="M2625.899,500c0-40.402,32.79-73.192,73.192-73.192h73.192v146.385h-73.192
				C2658.689,573.192,2625.899,540.402,2625.899,500z"/>
			<path style="fill:#F24E1E;" d="M2625.899,353.615c0-40.402,32.79-73.193,73.192-73.193h73.192v146.385h-73.192
				C2658.689,426.808,2625.899,394.017,2625.899,353.615z"/>
			<path style="fill:#FF7262;" d="M2772.284,280.423h73.192c40.402,0,73.192,32.79,73.192,73.193s-32.79,73.192-73.192,73.192
				h-73.192V280.423z"/>
			<path style="fill:#1ABCFE;" d="M2918.668,500c0,40.402-32.79,73.192-73.192,73.192c-40.402,0-73.192-32.79-73.192-73.192
				s32.79-73.192,73.192-73.192C2885.878,426.808,2918.668,459.598,2918.668,500z"/>
		</g>
	</g>
	<g>
		<path style="fill-rule:evenodd;clip-rule:evenodd;fill:#FFFFFF;" d="M1961.265,233.549h532.902v532.902h-532.902V233.549z"/>
		<path style="fill-rule:evenodd;clip-rule:evenodd;fill:#CC2229;" d="M2219.644,385.259c0.348,0.351,77.902,177.25,77.828,177.098
			h-50.828c0-0.545-24.074-57.673-23.823-57.972h-54.795C2168.52,504.534,2220.412,384.667,2219.644,385.259L2219.644,385.259z
			 M2054.461,276.628h119.12c0.345-0.075-118.33,285.71-118.725,285.337C2054.859,561.563,2054.586,276.426,2054.461,276.628
			L2054.461,276.628z M2264.265,276.628h123.179l-0.086,285.488C2387.43,563.034,2264.265,276.628,2264.265,276.628
			L2264.265,276.628z"/>
		<path style="fill-rule:evenodd;clip-rule:evenodd;" d="M2102.837,607.053l26.463,113.248h-19.283l-4.537-21.194h-23.945
			l-4.412,21.194h-19.281l26.463-113.248H2102.837z M2101.828,679.857l-8.319-42.388l-8.316,42.388H2101.828L2101.828,679.857z
			 M2172.661,720.298l-0.506-9.87h-0.63c-2.649,7.772-8.316,12.944-15.501,12.944c-17.013,0-24.196-19.897-24.196-44.489
			c0-21.031,5.294-43.845,24.448-43.845c6.679,0,9.831,2.43,14.619,8.736v-36.723h17.014v113.248h-15.247V720.298L2172.661,720.298z
			 M2160.563,651.702c-4.664,0-11.089,4.537-11.089,27.505c0,10.674,1.385,27.823,11.089,27.823
			c9.325,0,11.089-15.369,11.089-27.823C2171.652,656.239,2165.1,651.702,2160.563,651.702z M2199.893,679.047
			c0-25.401,8.822-44.008,28.86-44.008c19.911,0,28.857,18.606,28.857,44.008c0,25.725-9.071,44.326-28.857,44.326
			C2208.842,723.372,2199.893,704.769,2199.893,679.047z M2239.972,679.047c0-22.327-4.667-27.505-11.219-27.505
			c-5.167,0-11.216,3.882-11.216,27.505c0,24.105,6.049,27.823,11.216,27.823C2236.06,706.87,2239.972,700.078,2239.972,679.047z
			 M2284.571,720.298h-15.25V607.053h17.138v37.696c3.525-8.089,10.204-9.709,14.492-9.709c18.02,0,24.575,18.932,24.575,43.845
			c0,24.752-6.425,44.489-24.45,44.489c-7.434,0-11.847-3.721-15.501-12.944h-0.503L2284.571,720.298L2284.571,720.298z
			 M2296.791,706.87c9.325,0,11.092-15.369,11.092-27.823c0-22.977-6.55-27.505-11.092-27.505c-4.661,0-11.086,4.531-11.086,27.505
			C2285.708,689.721,2287.09,706.87,2296.791,706.87z M2390.067,696.519c-4.288,24.915-18.147,26.853-27.475,26.853
			c-10.458,0-28.354-3.882-28.354-44.326c0-28.155,11.592-44.008,29.612-44.008c11.346,0,27.351,6.312,27.351,45.628v4.531h-39.322
			c0,19.411,6.679,21.675,11.468,21.675c3.904,0,7.937-1.128,9.579-10.351h17.141V696.519L2390.067,696.519z M2373.554,671.444
			c-0.503-16.662-4.537-19.903-10.204-19.903c-9.704,0-11.341,13.754-11.468,19.903H2373.554L2373.554,671.444z M2396.114,283.276
			v-6.649h29.062v6.649h-10.763v28.252h-7.539v-28.252H2396.114L2396.114,283.276z M2434.523,284.584v26.944h-7.539v-34.901h9.953
			l9.853,27.464l9.751-27.464h9.853v34.904h-7.545v-26.947l-9.552,26.944h-5.325L2434.523,284.584z"/>
	</g>
	<g>
		<path style="fill:#00005B;" d="M4321.472,280.029h291.415c44.182,0,79.904,35.722,79.904,79.904v280.134
			c0,44.182-35.722,79.904-79.904,79.904h-291.415c-44.183,0-79.904-35.722-79.904-79.904V359.933
			C4241.568,315.75,4277.29,280.029,4321.472,280.029z"/>
		<path style="fill:#00003C;" d="M4242.541,648.323c-0.274-0.728-0.548-1.455-0.823-2.182c0-1.002,0-2.003,0-3.005
			C4242.639,644.763,4242.627,646.537,4242.541,648.323z"/>
		<path style="fill:#000020;" d="M4314.638,280.823c0.008-0.133,0.014-0.267,0.017-0.4c1.001,0,2.002,0,3.003,0
			C4316.712,281.016,4315.665,280.84,4314.638,280.823z"/>
		<path style="fill:#000020;" d="M4620.133,280.423c0.003,0.134,0.008,0.267,0.016,0.401c-1.026,0.017-2.074,0.192-3.02-0.401
			C4618.131,280.423,4619.132,280.423,4620.133,280.423z"/>
		<path style="fill:#000019;" d="M4692.27,352.943c0.124,0.01,0.247,0.018,0.371,0.023c0,1.002,0,2.003,0,3.005
			C4692.048,355.019,4692.229,353.972,4692.27,352.943z"/>
		<path style="fill:#000039;" d="M4313.797,719.971c-0.012-0.129-0.03-0.257-0.054-0.383c1.04-0.037,2.097-0.216,3.057,0.383
			C4315.799,719.971,4314.798,719.971,4313.797,719.971z"/>
		<path style="fill:#000039;" d="M4621.045,719.588c-0.024,0.127-0.042,0.255-0.054,0.383c-1.001,0-2.002,0-3.003,0
			C4618.948,719.372,4620.005,719.551,4621.045,719.588z"/>
		<path style="fill:#9999FF;" d="M4349.048,491.665c0-31.543,0-63.087,0-94.63c0-3.867,0.147-3.961,3.932-4.042
			c13.938-0.298,27.874-0.665,41.811-0.944c7.291-0.146,14.587-0.252,21.875,0.034c12.148,0.476,24.021,2.425,35.289,7.219
			c16.124,6.86,28.043,17.983,34.463,34.516c4.11,10.585,5.288,21.589,4.318,32.877c-0.648,7.533-2.099,14.867-5.123,21.814
			c-6.051,13.902-16.232,23.86-29.656,30.619c-7.403,3.727-15.329,5.84-23.459,7.242c-11.186,1.929-22.467,2.1-33.773,1.769
			c-2.144-0.063-4.287-0.124-6.431-0.173c-2.918-0.067-2.458,0.004-2.488,2.58c-0.014,1.144-0.002,2.289-0.002,3.433
			c0,17.596,0,35.191,0,52.787c0,0.644,0.041,1.293-0.028,1.93c-0.132,1.227-0.824,1.926-2.056,2.085
			c-0.563,0.073-1.142,0.039-1.713,0.039c-11.01,0.002-22.02,0.002-33.03,0c-3.631,0-3.926-0.287-3.926-3.88
			C4349.047,555.182,4349.048,523.423,4349.048,491.665z"/>
		<path style="fill:#9999FF;" d="M4557.444,460.62c0.936-0.981,1.472-1.542,2.007-2.104c7.875-8.276,17.111-14.478,27.948-18.172
			c5.861-1.998,11.92-2.939,18.12-2.921c2.386,0.007,3.064,0.642,3.067,3.053c0.015,11.804,0.012,23.608,0.002,35.413
			c-0.002,2.425-0.453,2.951-2.86,2.935c-4.655-0.029-9.296,0.144-13.905,0.792c-7.75,1.091-15.266,3.047-22.403,6.315
			c-2.944,1.348-5.6,3.139-7.994,5.337c-1.017,0.933-1.457,1.927-1.451,3.351c0.055,13.592,0.033,27.185,0.033,40.778
			c0,17.027,0,34.053,0,51.08c0,0.572,0.014,1.145-0.004,1.717c-0.077,2.399-0.676,3.009-3.117,3.012
			c-12.013,0.013-24.026,0.014-36.039,0.001c-2.589-0.003-3.29-0.783-3.29-3.588c-0.005-24.824-0.003-49.649-0.003-74.473
			c0-8.442-0.016-16.884,0.003-25.325c0.03-12.879-0.349-25.749-0.829-38.617c-0.078-2.071-0.344-4.134-0.446-6.205
			c-0.095-1.942,0.398-2.439,2.317-2.44c10.512-0.007,21.023-0.008,31.534,0.006c2.791,0.004,4.086,0.876,4.917,3.541
			c1.13,3.628,1.648,7.385,2.007,11.159C4557.212,456.883,4557.294,458.51,4557.444,460.62z"/>
		<path style="fill:#00005B;" d="M4390.059,461.046c0-9.37,0-18.74,0-28.111c0-0.429-0.002-0.858,0-1.288
			c0.012-2.234,0.011-2.285,2.185-2.32c6.647-0.107,13.294-0.216,19.942-0.239c4.586-0.016,9.128,0.483,13.597,1.571
			c2.854,0.694,5.649,1.578,8.306,2.821c9.086,4.25,14.13,11.528,15.691,21.32c0.763,4.787,0.417,9.566-0.529,14.292
			c-1.652,8.256-6.852,13.798-13.922,17.824c-4.34,2.472-9.15,3.623-13.976,4.644c-4.484,0.949-9.033,1.412-13.625,1.39
			c-3.646-0.017-7.292,0.009-10.939-0.014c-1.5-0.009-3.003-0.057-4.5-0.155c-2.219-0.146-2.228-0.172-2.228-2.338
			C4390.057,480.645,4390.059,470.845,4390.059,461.046z"/>
	</g>
	<g>
		<g>
			<path style="fill:#001E36;" d="M952.151,280.02h291.43c44.172,0,79.897,35.725,79.897,79.897v280.167
				c0,44.172-35.725,79.897-79.897,79.897h-291.43c-44.172,0-79.897-35.725-79.897-79.897V359.917
				C872.254,315.745,907.979,280.02,952.151,280.02z"/>
		</g>
		<g>
			<path style="fill:#31A7FE;" d="M976.785,499.607c0-30.79-0.002-61.581,0.001-92.371c0.001-6.126,0.119-6.255,6.044-6.262
				c10.117-0.012,20.24,0.193,30.349-0.095c4.325-0.123,5.426,1.366,5.416,5.527c-0.124,49.557-0.08,99.115-0.078,148.673
				c0,5.712,0.007,5.715,5.592,5.715c26.099,0.001,52.199,0.068,78.297-0.071c3.97-0.021,5.531,0.671,4.653,5.126
				c-1.869,9.478-3.277,19.05-4.742,28.603c-0.484,3.156-1.891,4.432-5.215,4.424c-38.416-0.088-76.832-0.109-115.247,0.02
				c-4.319,0.015-5.124-1.896-5.115-5.599C976.82,562.067,976.786,530.837,976.785,499.607z"/>
			<path style="fill:#31A7FE;" d="M1168.703,467.875c5.433-5.532,10.735-10.083,16.735-13.786c8.946-5.521,18.62-8.37,29.15-8.52
				c3.253-0.046,4.407,1.191,4.374,4.394c-0.113,10.851-0.163,21.705,0.026,32.554c0.064,3.661-1.138,4.859-4.803,4.725
				c-11.125-0.408-21.875,1.6-32.194,5.818c-0.948,0.388-1.875,0.825-2.815,1.233c-6.31,2.738-9.289,6.67-9.123,14.411
				c0.608,28.29,0.159,56.601,0.328,84.903c0.025,4.257-1.274,5.617-5.491,5.518c-10.26-0.243-20.529-0.06-30.795-0.086
				c-5.601-0.014-5.838-0.281-5.848-6.049c-0.068-39.301-0.143-78.602-0.183-117.903c-0.007-7.339-0.269-14.667-1.081-21.956
				c-0.349-3.133,0.272-4.573,3.828-4.503c9.675,0.19,19.359,0.176,29.035,0.011c3.541-0.061,5.381,1.486,6.475,4.641
				C1167.877,457.769,1167.89,462.49,1168.703,467.875z"/>
		</g>
	</g>
</g>
</svg>
